
<svg xmlns="http://www.w3.org/2000/svg" version="1.1" xmlns:xlink="http://www.w3.org/1999/xlink" preserveAspectRatio="none" x="0px" y="0px" width="1000px" height="1000px" viewBox="0 0 1000 1000">
<defs>
<g id="Layer5_0_FILL">
<path fill="#000000" stroke="none" d="
M 332.6 336.6
Q 331.6 333.45 331.15 331.85 330.25 329 329.95 327 329.6 325.05 329.6 316 329.6 309.3 327.65 305.55 326.7 303.7 323.8 300.3 321.05 297.05 320.05 295.05 318.55 290.7 317.8 288.55 316.45 284.7 314.15 283.35 312.084765625 282.1109375 308.15 282.35 308.2400390625 282.01953125 308.3 281.65 309.18671875 281.2796875 309.85 280.55 311.2 279.1 312.2 275.4 315.6 262.9 316.85 253.55 318.45 241.5 317.15 231.35 315.65 219.75 310.15 210.2 304.2 199.85 294.95 194.5 287.1 189.95 276.95 189.1 267.75 188.35 257.9 190.65 249.65 192.6 239.95 197 234.05 199.65 222.85 205.55
L 210.35 212.15
Q 208.55 204.05 206.15 197.35
L 193.4 164.4
Q 186.5 146.6 183.45 137.55 181.8 132.7 180.1 127 178.75 122.55 176.5 114.3 175.4126953125 110.3943359375 174.55 107.45 174.0279296875 102.72109375 173 98 171.85 92.55 168.9 88 160.05 74.15 143.3 72.75 136.8 74.15 129.85 73.35 124.0146484375 72.9927734375 118.4 74 113.45 75.4 108.25 75.85 90.1 78 73.2 84.9 28 103.4 -20.35 104.35 -24.1224609375 104.178125 -27.9 103.75 -32.25 103.45 -36.55 103.15 -53.75 102.1 -70.4 98.15 -81.65 95.4 -92.25 91.05
L -93.05 90.1
Q -106.1 86.75 -119.2 83.3 -122.7 82.45 -126.35 81.9 -133.65 81.45 -140.9 82.55 -156.95 84.55 -169.05 95.85 -175.6 101.95 -179.35 109.95 -187.9 127.9 -185.9 148.05 -182.05 186.8 -160.8 219.6
L -161.9 218.9 -161.5 219.8
Q -166.5509765625 215.96875 -173.35 212.7 -179.5 209.65 -184.1 208.75 -190.95 207.35 -198.65 209.1 -205.5 210.7 -212.35 214.7 -220.4 219.45 -225.1 225.5 -228.25 229.65 -232.4 238.9 -235.12890625 245.0400390625 -237.35 248.9 -239.5 252.8 -242.35 256.05 -265.35 282.45 -259.55 317.4 -261.9 316.9 -264.15 316.3 -275.2 313.65 -282.75 305.15 -288.5 298.7 -294.05 291.75 -301.55 282.4 -312.95 284.55 -314.1 284.75 -314.95 285.5 -324.1 293.65 -328.5 305.3 -332.75 316.7 -341 325.35 -347.95 332.65 -344.7 342 -344.05 343.95 -345.2 345.85 -347.1 349.1 -348.4 352.65 -350.4 358.2 -346.85 362.85 -343.7 366.9 -343.15 371.8 -342.8 375.2 -342.1 378.6 -340 388.8 -329.5 390.25 -329.1 393.4 -326.55 395.4 -323.4 397.8 -319.45 397.7 -311.25 397.5 -303.1 397.3 -300.85 397.25 -299.05 398.4 -291.8 403.5 -283 402.35 -282.25 402.2 -281.6 401.8 -273.65 397.65 -264.35 398.75 -262.8 398.7 -261.6 399.55 -256.8 403 -251.1 404.65 -242.95 407.05 -234.5 406.65 -223.75 407.65 -215.7 401.2 -212.65 398.8 -211.05 395.3 -208.15 388.9 -205.55 382.2 -203.1 376.05 -203.35 369.75
L -198.9 361.3
Q -197.7986328125 359.864453125 -196.3 358.1
L -189.7 350.3
Q -189.490625 350.8953125 -189.3 351.35 -188.7 352.85 -187.1 355.1 -182.85 361.35 -177.7 367.25
L -173.9 371.55
Q -173.3759765625 372.0740234375 -172.95 372.45 -181.293359375 378.5634765625 -188.2 387.35 -192 392.15 -189.75 397.65
L -183.35 397.1 -181.6 402.05 -170.55 400.7
Q -171.25 403.7 -169.95 406.2 -167.4 411.05 -161.45 409.95 -146.3 406.95 -133.2 398.5 -135.65 405.55 -129.2 409.4 -115.9 417.25 -100.5 415.4 -83.1 412.95 -67.2 405.3 -62.2 402.85 -58.85 398.6 -55.8544921875 394.67734375 -53.65 390.9 -53.133984375 391.075390625 -52.5 391.2 -39.15 393.45 -28.85 391.85 -28.42890625 391.7828125 -28.05 391.7 -28.745703125 393.43515625 -29.25 395.3 -29.15 399.65 -26 402.6 -25.05 403.5 -23.8 403.65 -8.85 407.2 3.95 397.75 4.4 400.45 6.15 402.65 8.2 405.25 11.2 406.3 21.25 409.55 28.7 402.25 29.45 403.35 30.3 404.4 33.45 408.35 38.4 409.2 40.6 409.35 42.7 408.9 50.15 407.15 57.75 405.45 60.05 407 62.75 407.3 73.45 407.55 80.8 399.8 81.65 403.55 85.05 405.05 88.5 406.65 92 405.3 93.25 404.9 94.15 404.05 94.9546875 403.256640625 95.65 402.4 106.040625 406.6716796875 116.9 407.15 130 407.75 148.45 402.55 151.35 401.75 156.1 400.25 160.65 398.85 167.1 396.45 169.55 395.55 174.45 393.55 180.9642578125 390.9642578125 190.1 387.15 191.05703125 391.438671875 193.2 395.2 195.8 399.7 199.7 402.55 210.6 410.65 229.95 406 230.3 405.9 245.1 401.7 254.2 399.15 260.5 398.75 263.1 398.6 270.35 398.8 276.6 399 280.2 398.5 290.85 397.05 298.65 389.7 301.55 386.7 303.05 385.25 305.7 382.65 308 381.5 309.85 380.6 313.3 379.8 317.3 378.95 318.7 378.4 323.55 376.55 327.2 371.85 330.4 367.65 332.2 361.95 334.1 355.8 334.2 349.3 334.3 342.8 332.6 336.6
M 328 347.85
Q 328.55 357 324 364.85 320.45 370.9 315.3 373.25 313.65 374 310.1 374.85 306.55 375.7 304.85 376.4 301.65 377.8 297.35 381.85 292.25 386.7 290.25 388 283.4 392.5 270.65 392.35 263.55 392.1 260 392.05 253.7 391.9 249.5 392.5 245.2 393.15 238.45 395.4 229.95 398.3 227.5 398.9 213.6 402.45 205.45 396.55 200.25 392.75 198.35 385.5 196.6 379.1 197.8 371.7 198.5 367.2 201.15 358.45 203.8 349.7 204.5 345.15 206.1 335.15 203.75 320.05 199.85 295.1 199.8 294.8 199 286.45 199.95 280.55 201 274.05 204.75 265.4 208.4 256.95 214.05 246.9 217.3 241.15 224.6 229
L 232.6 215.9
Q 222.35 220.05 215.1 232.7 212.7 236.85 209.65 243.8 205.55 253.1 204.6 255.05 203.15 258.15 200 264.3 197.3 269.75 196.1 273.85 192.7 285.35 196.1 306.3 198.2 319.4 198.6 322.85 199.6 332.2 198.7 339.3 198.05 344.25 196.05 351.05 194.95 354.9 192.5 362.65 189.5890625 372.341796875 189.4 379.65 188.435546875 379.9271484375 187.2 380.45
L 179.15 383.75
Q 167.95 388.35 161.3 390.8 157.65 392.15 153.55 393.5 142 397.4 132.15 399.2 116.05 402.05 104.8 398.65 100.5 397.35 99.65 397.2 99.392578125 397.151953125 99.15 397.1 99.4873046875 396.422265625 99.8 395.7
L 100.8 396 101.15 390.25 100.05 390.1
Q 100.25 374.9 88.25 365.6 91.7 357.7 95.05 349.8 99.95 338.4 105 327.1 120.7 292.25 126.7 254.65
L 127.85 254 129.35 247.6 127.95 248.55
Q 129.15 243.45 130.75 238.55 132.35 233.6 134.9 229.1 153.85 195.5 167.65 159.65
L 168.25 163.2
Q 170.75 150.5 173.3 137.7 174.43359375 132.046484375 174.9 126.4 175.658203125 129.2037109375 176.3 131.45
L 178.2 137.6
Q 178.85 139.65 182.25 149.85
L 192.2 178.05
Q 193.85 182.7 197.15 191.9 200.65 202.6 202.75 214.25 202.898828125 215.1798828125 203.1 215.95 194.0794921875 220.76875 189.9 223.15 182.3 227.4 176.55 231.2 158.05 243.5 143.65 260.7 129.2 277.95 120.35 298.25 121.4 299.45 123.2 298.4 124.7 297.45 125.7 295.65 141.7 266.45 167.75 245.05 173.85 240.05 179.75 236.15 185.45 232.35 192.85 228.35 197.45 225.8 206.4 221.3
L 228.4 210.15
Q 238.75 204.95 243.8 202.8 252.5 199.05 259.85 197.5 268.7 195.65 276.85 196.55 285.85 197.55 292.7 201.9 300.75 207 305.6 216.4 310.1 225.15 310.85 235.5 311.5 244.6 309.4 255.15 307.8 263.45 304.05 274.3 303.2970703125 276.49765625 303.25 278.1 303.212109375 278.24140625 303.15 278.35 302.95 278.7 302.5 279.05 301.95 279.5 301.7 279.7 300.65 280.65 300.5 282.2 300.438671875 282.8548828125 300.55 283.4 294.0041015625 284.786328125 287.75 287.65 278.25 291.95 270.85 299.05 268.95 300.85 260.5 310.5 254.3 317.55 249.35 320.9 247.4 322.2 243.75 324.15 239.7 326.35 238.05 327.35 228.05 333.4 221.85 343.7 221.1 344.95 220.95 346.1 220.75 347.5 221.65 348.2 222.85 349.1 224.4 347.8 225.55 346.85 226.55 345 230.15 338.35 241.35 332.5 247.5 329.45 250.5 327.8 255.65 324.95 258.8 322.05 261.3 319.8 264.3 315.85 267.6 311.35 269.35 309.2 277 299.9 288.15 294.4 299.3 288.9 311.35 288.5 310.95 293.2 315.6 299.75 321.3 307.75 322.2 310.75 322.95 313.3 323 317.2 323.05 319.4 323.05 323.75 323.3 327.9 325.5 335.8 327.75 343.8 328 347.85
M 166.95 103.45
Q 167.75 107.85 167.9 112.3 169.2 153.25 149.4 189.2 138.4 209.15 129.05 229.8 119.05 251.9 114.75 275.9 112.9 286.2 109.2 295.85 96.5 329.25 83.15 362.4
L 76.6 361.7 75.9 360.75 68.95 360.5
Q 74.45 363 80 365.55 85.35 368.1 88.95 372.7 97.1 383.25 93.45 395.9 92.15 400.45 87.35 399.95
L 84.2 396.15 88.1 386.9
Q 85.15 388.25 83.3 391.1 81.35 394.15 78.75 396.85 71.45 404.4 61.8 401.15 62.25 397.5 64.45 394.6 70.2 387 75.55 381.15
L 74.15 380.6
Q 64.6 384.55 59.25 394.05 58.1 396.1 56.4 397.6 52.95 400.6 48.85 402.35 40.2 405.7 34.6 399.7 34.55 399.25 34.6 398.85 36.3 388.2 44.65 381.2 47.05 379.1 49.9 377.7 53.45 375.75 52.2 373.6 51.25 373.5 50.5 373.8 37.6 379.1 30.25 390.9 28.55 393.65 26.25 396.3 18.9 404.55 9.85 398.45 8.95 394.5 10.6 391 17.05 377.1 31 372.8
L 31.25 370.5
Q 29.05 369.95 26.8 370.15 23.95 370.4 21.75 372.1 11.4 380.2 4.4 391.6 -0.75 393.9 -5.75 396.45 -14.65 401.1 -24.45 398.35 -24 395.45 -23.4 392.6 -22.6 388.9 -20.45 385.95 -10.15 371.65 7.8 373.65 11.2 369.8 15.5 366.85 18.3 364.85 21.5 363.95 36.35 359.65 52.1 358.15
L 28.3 355.8
Q 27 353 26.6 349.9 20.25 300.65 41.35 255.55 44.5 248.85 47.15 242.15 52.45 228.7 53.35 214.35 53.85 206.45 53.75 198.55 53.6 181.1 56.7 164.05 60.3 144.2 73.55 129.15 76.15 126.15 76.05 123.6 55.8 138.85 51.8 164.65 48 188.8 48.5 213.5 48.65 221.2 46.3 228.45 41.9 242.15 35.8 255.25 29.05 269.85 24.65 285.55 22.7 292.55 21.4 299.15 15.65 328.2 20.9 357.25 15.9 361.15 10.6 364.35 7.85 366.05 4.9 367.1 1.1 368.6 -3.15 369.1 -5.8 369.25 -7.95 370.65 -15.25 375.5 -21.5 381.7 -23.8416015625 384.0625 -25.6 386.8 -26.3759765625 385.9609375 -27.55 385.7 -28.65 385.45 -30.1 385.6 -30.4 385.65 -32.7 386.05 -36.2 386.6 -42.05 386.25 -49.15 385.75 -51.4 385.85 -51.7123046875 385.86484375 -52 385.9
L -52 384.85
Q -50.15 375.4 -48.55 365.95 -47.555859375 360.05625 -46.95 354.1 -46.2375 356.928515625 -45.3 359.2 -44.95 360.05 -44.2 361.75 -43.5 363.25 -43.25 364.4 -43.15 364.85 -42.9 366.95 -42.7 368.5 -42.35 369.45 -42 370.45 -41.2 371.75 -40.7 372.5 -39.75 373.9 -38.75 375.5 -37 378.9 -35.3 381.7 -33.15 382.6 -32.3 382.95 -31.5 382.85 -30.6 382.75 -30.2 382.1 -29.55 381 -30.95 379.05
L -33.05 376.15
Q -36.05 371.8 -38.4 366.95 -43.3 356.45 -44.65 344.2 -44.85 342.75 -45.4 341.75 -45.6306640625 341.365625 -45.9 341.1 -44.3615234375 311.0734375 -50.7 281.45 -50.15 281.75 -49.7 281.6 -49.65 281.6 -49.75 281.1 -57.85 257.4 -68.55 234.25 -73.35 223.75 -79.15 214.05 -83.9 206.2 -85.4 197.3 -87.5 184.8 -89.6 172.5 -93.6 149.05 -107.7 129.85 -107.35 131.75 -106.8 133.65 -105.15 138.95 -102.65 144.1 -93.05 163.6 -92.5 185.35 -92.3 193.9 -90.8 202.35 -89.05 212.3 -83.8 220.9 -57.5 264.05 -52.95 314.2 -51.8 326.6 -51.5 338.9 -50.95 360.75 -58.4 381.05 -59.75 384.8 -61.25 388.45 -64.75 397.2 -72.8 401.35 -84.5 407.5 -97.55 408.9 -108.65 409.7 -119.65 408.45 -126.2 407.6 -130.4 402.5 -129.55 400.1 -127.8 398.35 -115 386 -97.05 385.8
L -95.85 383.95
Q -106.5 380.25 -117.4 385.45 -136.05 394.55 -154.65 404.15 -160.4 407.05 -166.55 405.05 -164.4 396.8 -158.85 390.3 -146.3 375.55 -127.75 369.8 -101.7 361.85 -78.2 374.7
L -75.6 372.1
Q -75.5 369.95 -77.35 368.7 -86.65 362.7 -97.75 362.2 -99.8 358.2 -102.35 354.65 -115.45 336.35 -125.6 316.4 -130.6 306.55 -133.3 296.05 -134.2 292.45 -134.65 288.8 -137.65 264.95 -144.5 242.05 -146.55 235.2 -150.3 229.1 -171.4 195 -179.25 155.8 -183.75 133.35 -174.65 112.55 -173.4 109.75 -171.4 107.45 -165.6 100.55 -158.15 95.2 -143.5 84.65 -125.5 87.1 -105.9 90.1 -89.05 98.2 -86.4 99.5 -83.6 100.3 -56.55 108.15 -28.1 110 -24.225 110.3796875 -20.35 110.5 18.15 111.2 53.45 96.05 53.3 96.3 53.15 96.55 53.1 96.6 53.1 96.7
L 53.15 96.7
Q 53.15 96.75 53.25 96.8 53.35 96.8 53.5 96.8 56.75625 95.5451171875 73.9 88.65 91.0845703125 81.769140625 109.45 79.05 127.8107421875 76.37890625 135.15 77.05 142.5326171875 77.720703125 146.6 79.5 150.6806640625 81.3369140625 152.85 82.65 155.0548828125 84.002734375 157.1 85.8 164.95 92.6 166.95 103.45
M -194.3 214.55
Q -180.65 212.95 -163.85 225.9 -160.4 228.55 -158.4 230.7 -156.0921875 233.225390625 -154.95 235.9 -154.1013671875 236.396875 -153.35 237.2 -152 238.6 -151.35 240.6 -151.0416015625 241.5435546875 -150.85 242.8 -150.4740234375 242.938671875 -150.1 242.95 -145.7525390625 255.2720703125 -144.4 268.45 -142.95 282.45 -139.15 296.05 -129 332.6 -105 362.05 -133.35 363.7 -161.5 367.05 -164.8037109375 367.462890625 -167.85 369.15 -168.0853515625 368.8052734375 -168.4 368.45 -174.45 361.75 -177.4 358.35 -182.5 352.4 -185.7 347.6 -186.1064453125 346.9822265625 -186.5 346.5 -184.53359375 344.1509765625 -183.1 342.25 -172.7 328.7 -167.45 312.25 -165.8 307.1 -165.3 303.1 -165 300.55 -164.95 297.05 -165 293 -165.05 290.95 -165.2 282.95 -164.65 274.3 -164.45 271.9 -164.9 270.75 -165.2 269.9 -165.95 269.35 -166.75 268.75 -167.6 268.8 -168.95 268.95 -169.55 270.6 -170.05 271.85 -170 273.7
L -169.65 287.3
Q -169.45 295.75 -169.95 299.95 -170.8 306.6 -174.05 314.85 -181 332.35 -193.35 346.2 -195 348.1 -198.45 351.8 -198.678515625 352.0552734375 -198.9 352.3 -207.9 361.95 -210.05 375 -210.9 380.2 -212.9 385.1 -213.35 386.25 -213.7 387.55 -215.4 394.3 -221.15 398.25 -225.2 400.95 -230.3 401.35 -244.2 403.25 -255.8 395.8 -258.95 393.85 -262.45 393.3 -267.9 393.3 -273.4 393.25 -274.5 393.25 -275.35 393.75 -282.8 397.75 -291.3 397.2 -293.2 395.15 -295.65 393.8 -300.8 390.85 -306.6 392.1 -313.05 393.45 -319.2 392.25 -320.25 392.05 -320.85 391.3 -324.9 386.35 -330.7 383.9 -337.95 380.85 -337 373.15 -336.5 369.35 -338.1 366.1 -339.85 362.55 -342 359.25 -343.85 356.4 -341.65 353.65 -337.4 348.5 -338.65 342.3 -339.15 339.7 -339.2 337.1 -339.4 331 -334 327.45 -332.5 326.4 -331.7 324.8 -324.45 310.65 -317.1 296.5 -315.65 293.75 -313.15 291.9 -307.1 287.45 -301.3 293.25 -295.45 299.05 -290.4 305.55 -279.15 320.2 -261.1 324.6 -249.3 327.55 -242.5 337.95 -236.15 347.75 -225.65 351.2
L -223.8 350.1
Q -223.2 348.8 -224.15 347.5 -225.85 345.25 -228.05 343.3 -231.7 340.15 -234.5 336.05 -242.1 324.85 -253.9 319 -254.1 315.45 -254.35 311.9 -255.8 293.05 -248.15 275.9 -246.85 273 -244.8 270.65 -236.1 260.8 -230.45 248.9 -229.02578125 245.808203125 -227.4 241.9 -222.8 231 -217.95 226.25 -215.25 223.65 -210.6 220.9 -201.65 215.45 -194.3 214.55
M -173.25 388.05
Q -171.6 385.75 -169.05 384.6 -159.6 380.2 -153.65 371.75 -170.15 378.6 -182.2 392
L -184.3 391.5
Q -179.8 384.2 -173.45 378.25 -160.5 366.2 -143.45 368.5
L -136.55 368.55
Q -155.5 376.8 -167.65 393.6
L -178.05 397.1
Q -176.25 392.3 -173.25 388.05
M 118 302.3
Q 114.883203125 311.9298828125 113.7 322.15 114.05 320.35 114.9 317.2 115.85 313.75 116.15 312.25 116.5 310.7 116.9 308.25 117.45 304.95 117.6 304.2 117.777734375 303.3193359375 118 302.3
M 216.2 -318.7
Q 219 -341.75 201 -338.9 153.75 -331.65 113.25 -305.95 101.64296875 -298.646875 93.35 -290.65 93.029296875 -290.3494140625 92.75 -290.05 91.5015625 -290.577734375 90.2 -291.1 86.75 -292.1 85.95 -292.55 77.75 -296.6 68.85 -298.7 50.45 -303.4 31.65 -304.8 12.7 -306.2 -6.1 -304.3 -24.9 -302.4 -43.15 -297.3 -51.046875 -295.0927734375 -58.75 -292.45 -58.8873046875 -292.95 -59.15 -293.5 -61.4 -298.15 -65.6 -302.95 -66.7658203125 -304.291796875 -68.5 -306.05 -72.35 -309.9 -76.05 -313.9 -98.0916015625 -337.89609375 -126.5 -349.35
L -149.1 -356.2
Q -152.95 -344.85 -154.9 -332.9 -158.1 -313.15 -157.5 -293.3 -156.95 -276.05 -153.6 -259.1 -153.5029296875 -258.5998046875 -153.4 -258.1 -151.8779296875 -250.0859375 -149.45 -244.95 -147.9 -241.85 -146.1 -240.75 -145.7080078125 -240.5212890625 -145.3 -240.4
L -145.25 -240.25 -146.1 -239.3 -137.25 -241.1
Q -112.65 -252.05 -85.8 -255.55 -74.65 -257.25 -63.55 -258.4 -34.9 -262.05 -5.9 -263.5 4.2 -263.9 14.35 -263.6 26.1 -263.3 38 -262.25 51.95 -260.8 65.9 -258.85 86.05 -255.95 105.8 -250.95 121.85 -246.95 137.45 -240.95 156.1 -233.85 173.45 -223.8 174.3 -223.3 175.1 -222.7 178.8 -219.75 184.5 -222.4 183.466015625 -222.35859375 183.25 -223.2 183.67890625 -223.5232421875 184.05 -223.95 184.65 -224.65 185.6 -226.2 191.6875 -236.6705078125 196.6 -247.9 211.75 -281.8 216.2 -318.7
M 189.7 -326.95
Q 189.2 -326.75 188.7 -326.55 147.6 -316.9 113.25 -292.15 109.8466796875 -289.1875 106.75 -285.75 106.17734375 -285.1056640625 105.9 -284.45 102.0619140625 -286.1634765625 97.95 -287.9 97.99453125 -287.953125 98.05 -288 105.378515625 -294.1205078125 113.25 -299.5 156.8 -329.75 208.05 -333.75 208.25 -333.4 208.3 -332.95 212.3 -288.45 190.4 -247.9 185.76015625 -238.88046875 179.25 -230.7 175.2234375 -235.4865234375 171.35 -239.25 170.6392578125 -239.9107421875 169.65 -240.8 170.8576171875 -241.72734375 172.15 -243.55 174.0291015625 -246.104296875 175.25 -247.9 182.25 -259.1 187.85 -271 202.45 -301.95 189.7 -326.95
M 188.3 -321.4
L 191.25 -318.9
Q 191.15 -318.15 191.15 -317.4 191 -280.65 170.35 -251.05 168.451953125 -248.6892578125 166.3 -246.45 165.547265625 -245.697265625 165.05 -245 158.9439453125 -250.428515625 148.35 -259.55 134.9033203125 -271.1203125 108.8 -283.1 109.3318359375 -283.3859375 109.85 -283.75 110.9 -284.45 112.95 -286.35 113.1166015625 -286.5001953125 113.25 -286.65 146.95 -312.5 188.3 -321.4
M 9.7 -299.05
Q 24.05 -299.5 38.45 -297.85 52.300390625 -296.3052734375 64.8 -293.2 77.302734375 -290.037109375 87.6 -285.35 97.8884765625 -280.6546875 116.3 -271.75 134.71171875 -262.8021484375 146.5 -251.85 158.3458984375 -240.8484375 164.3 -235.7 155.45 -240.1 146.2 -243.8 130.3 -250.2 113.9 -254.8 97.9 -259.5 81.6 -262.55 64.6 -265.55 47.55 -267.2 31.15 -268.45 14.7 -268.7 -2.65 -268.95 -19.9 -268.1 -36.3 -267.15 -52.45 -265.3 -69.85 -263.35 -87.05 -260.55 -105.85 -257.6 -124.25 -252.3 -122.4 -253.7 -120.5 -255 -90.15 -275.8 -55.3 -287.45 -37.9 -293.3 -19.65 -296.25 -5 -298.55 9.7 -299.05
M -76.5 -306.05
Q -76.053515625 -305.603515625 -75.6 -305.15 -71.7 -301.25 -69.65 -298.9 -66.55 -295.3 -64.65 -292 -64.1904296875 -291.233984375 -63.8 -290.65 -67.225390625 -289.39921875 -70.6 -288.1 -70.8677734375 -289.0814453125 -71.5 -290.1 -74.7 -295.4 -82.2 -304.35 -82.9271484375 -305.237109375 -83.65 -306.05 -92.3 -314.5 -101.35 -322.45 -113.0130859375 -332.8283203125 -126.5 -337.05
L -141.25 -339.35
Q -143.35 -334.35 -144.75 -328.95 -149.1 -311.8 -146.8 -294.1 -144.35 -275.6 -135.55 -259.1 -135.266015625 -258.6 -135 -258.1
L -133.75 -255
Q -133.323046875 -253.965625 -132.9 -253.15 -137.1958984375 -249.8966796875 -141.45 -246.45 -141.960546875 -247.4658203125 -142.85 -248.8 -145.0224609375 -252.1390625 -146.8 -258.1 -146.9515625 -258.599609375 -147.1 -259.1 -149.65 -267.55 -151.2 -276.25 -154.8 -296.05 -152.8 -316.25 -151.1 -333.6 -145.6 -350.15
L -126.5 -342.75
Q -98.05625 -329.5271484375 -76.5 -306.05
M -142.05 -315.45
Q -141.4 -325.85 -138.25 -334.7
L -126.5 -330.8
Q -105.5931640625 -322.4365234375 -89.45 -306.05 -88.3923828125 -305.0923828125 -87.75 -304.45 -85.85 -302.45 -84.1 -300.2 -79.55 -294.45 -76 -287.8 -75.509375 -286.8705078125 -75.1 -286.25 -103.3318359375 -274.472265625 -128.3 -256.55 -128.903125 -257.2263671875 -129.5 -258.1 -129.7591796875 -258.5998046875 -130.05 -259.1 -134.45 -268 -137.5 -277.65 -143.25 -296 -142.05 -315.45 Z"/>

<path fill="#333333" stroke="none" d="
M -169.05 384.6
Q -171.6 385.75 -173.25 388.05 -176.25 392.3 -178.05 397.1
L -167.65 393.6
Q -155.5 376.8 -136.55 368.55
L -143.45 368.5
Q -160.5 366.2 -173.45 378.25 -179.8 384.2 -184.3 391.5
L -182.2 392
Q -170.15 378.6 -153.65 371.75 -159.6 380.2 -169.05 384.6
M -163.85 225.9
Q -180.65 212.95 -194.3 214.55 -201.65 215.45 -210.6 220.9 -215.25 223.65 -217.95 226.25 -222.8 231 -227.4 241.9 -229.02578125 245.808203125 -230.45 248.9 -236.1 260.8 -244.8 270.65 -246.85 273 -248.15 275.9 -255.8 293.05 -254.35 311.9 -254.1 315.45 -253.9 319 -242.1 324.85 -234.5 336.05 -231.7 340.15 -228.05 343.3 -225.85 345.25 -224.15 347.5 -223.2 348.8 -223.8 350.1
L -225.65 351.2
Q -236.15 347.75 -242.5 337.95 -249.3 327.55 -261.1 324.6 -279.15 320.2 -290.4 305.55 -295.45 299.05 -301.3 293.25 -307.1 287.45 -313.15 291.9 -315.65 293.75 -317.1 296.5 -324.45 310.65 -331.7 324.8 -332.5 326.4 -334 327.45 -339.4 331 -339.2 337.1 -339.15 339.7 -338.65 342.3 -337.4 348.5 -341.65 353.65 -343.85 356.4 -342 359.25 -339.85 362.55 -338.1 366.1 -336.5 369.35 -337 373.15 -337.95 380.85 -330.7 383.9 -324.9 386.35 -320.85 391.3 -320.25 392.05 -319.2 392.25 -313.05 393.45 -306.6 392.1 -300.8 390.85 -295.65 393.8 -293.2 395.15 -291.3 397.2 -282.8 397.75 -275.35 393.75 -274.5 393.25 -273.4 393.25 -267.9 393.3 -262.45 393.3 -258.95 393.85 -255.8 395.8 -244.2 403.25 -230.3 401.35 -225.2 400.95 -221.15 398.25 -215.4 394.3 -213.7 387.55 -213.35 386.25 -212.9 385.1 -210.9 380.2 -210.05 375 -207.9 361.95 -198.9 352.3 -198.678515625 352.0552734375 -198.45 351.8 -195 348.1 -193.35 346.2 -181 332.35 -174.05 314.85 -170.8 306.6 -169.95 299.95 -169.45 295.75 -169.65 287.3
L -170 273.7
Q -170.05 271.85 -169.55 270.6 -168.95 268.95 -167.6 268.8 -166.75 268.75 -165.95 269.35 -165.2 269.9 -164.9 270.75 -164.45 271.9 -164.65 274.3 -165.2 282.95 -165.05 290.95 -165 293 -164.95 297.05 -165 300.55 -165.3 303.1 -165.8 307.1 -167.45 312.25 -172.7 328.7 -183.1 342.25 -184.53359375 344.1509765625 -186.5 346.5 -186.1064453125 346.9822265625 -185.7 347.6 -182.5 352.4 -177.4 358.35 -174.45 361.75 -168.4 368.45 -168.0853515625 368.8052734375 -167.85 369.15 -164.8037109375 367.462890625 -161.5 367.05 -133.35 363.7 -105 362.05 -129 332.6 -139.15 296.05 -142.95 282.45 -144.4 268.45 -145.7525390625 255.2720703125 -150.1 242.95 -150.4740234375 242.938671875 -150.85 242.8 -151.0416015625 241.5435546875 -151.35 240.6 -152 238.6 -153.35 237.2 -154.1013671875 236.396875 -154.95 235.9 -156.0921875 233.225390625 -158.4 230.7 -160.4 228.55 -163.85 225.9
M 167.9 112.3
Q 167.75 107.85 166.95 103.45 164.95 92.6 157.1 85.8 155.0548828125 84.002734375 152.85 82.65 150.6806640625 81.3369140625 146.6 79.5 142.5326171875 77.720703125 135.15 77.05 127.8107421875 76.37890625 109.45 79.05 91.0845703125 81.769140625 73.9 88.65 56.75625 95.5451171875 53.5 96.8 53.35 96.8 53.25 96.8 53.15 96.75 53.15 96.7
L 53.1 96.7
Q 53.1 96.6 53.15 96.55 53.3 96.3 53.45 96.05 18.15 111.2 -20.35 110.5 -24.225 110.3796875 -28.1 110 -56.55 108.15 -83.6 100.3 -86.4 99.5 -89.05 98.2 -105.9 90.1 -125.5 87.1 -143.5 84.65 -158.15 95.2 -165.6 100.55 -171.4 107.45 -173.4 109.75 -174.65 112.55 -183.75 133.35 -179.25 155.8 -171.4 195 -150.3 229.1 -146.55 235.2 -144.5 242.05 -137.65 264.95 -134.65 288.8 -134.2 292.45 -133.3 296.05 -130.6 306.55 -125.6 316.4 -115.45 336.35 -102.35 354.65 -99.8 358.2 -97.75 362.2 -86.65 362.7 -77.35 368.7 -75.5 369.95 -75.6 372.1
L -78.2 374.7
Q -101.7 361.85 -127.75 369.8 -146.3 375.55 -158.85 390.3 -164.4 396.8 -166.55 405.05 -160.4 407.05 -154.65 404.15 -136.05 394.55 -117.4 385.45 -106.5 380.25 -95.85 383.95
L -97.05 385.8
Q -115 386 -127.8 398.35 -129.55 400.1 -130.4 402.5 -126.2 407.6 -119.65 408.45 -108.65 409.7 -97.55 408.9 -84.5 407.5 -72.8 401.35 -64.75 397.2 -61.25 388.45 -59.75 384.8 -58.4 381.05 -50.95 360.75 -51.5 338.9 -51.8 326.6 -52.95 314.2 -57.5 264.05 -83.8 220.9 -89.05 212.3 -90.8 202.35 -92.3 193.9 -92.5 185.35 -93.05 163.6 -102.65 144.1 -105.15 138.95 -106.8 133.65 -107.35 131.75 -107.7 129.85 -93.6 149.05 -89.6 172.5 -87.5 184.8 -85.4 197.3 -83.9 206.2 -79.15 214.05 -73.35 223.75 -68.55 234.25 -57.85 257.4 -49.75 281.1 -49.65 281.6 -49.7 281.6 -50.15 281.75 -50.7 281.45 -44.3615234375 311.0734375 -45.9 341.1 -45.6306640625 341.365625 -45.4 341.75 -44.85 342.75 -44.65 344.2 -43.3 356.45 -38.4 366.95 -36.05 371.8 -33.05 376.15
L -30.95 379.05
Q -29.55 381 -30.2 382.1 -30.6 382.75 -31.5 382.85 -32.3 382.95 -33.15 382.6 -35.3 381.7 -37 378.9 -38.75 375.5 -39.75 373.9 -40.7 372.5 -41.2 371.75 -42 370.45 -42.35 369.45 -42.7 368.5 -42.9 366.95 -43.15 364.85 -43.25 364.4 -43.5 363.25 -44.2 361.75 -44.95 360.05 -45.3 359.2 -46.2375 356.928515625 -46.95 354.1 -47.555859375 360.05625 -48.55 365.95 -50.15 375.4 -52 384.85
L -52 385.9
Q -51.7123046875 385.86484375 -51.4 385.85 -49.15 385.75 -42.05 386.25 -36.2 386.6 -32.7 386.05 -30.4 385.65 -30.1 385.6 -28.65 385.45 -27.55 385.7 -26.3759765625 385.9609375 -25.6 386.8 -23.8416015625 384.0625 -21.5 381.7 -15.25 375.5 -7.95 370.65 -5.8 369.25 -3.15 369.1 1.1 368.6 4.9 367.1 7.85 366.05 10.6 364.35 15.9 361.15 20.9 357.25 15.65 328.2 21.4 299.15 22.7 292.55 24.65 285.55 29.05 269.85 35.8 255.25 41.9 242.15 46.3 228.45 48.65 221.2 48.5 213.5 48 188.8 51.8 164.65 55.8 138.85 76.05 123.6 76.15 126.15 73.55 129.15 60.3 144.2 56.7 164.05 53.6 181.1 53.75 198.55 53.85 206.45 53.35 214.35 52.45 228.7 47.15 242.15 44.5 248.85 41.35 255.55 20.25 300.65 26.6 349.9 27 353 28.3 355.8
L 52.1 358.15
Q 36.35 359.65 21.5 363.95 18.3 364.85 15.5 366.85 11.2 369.8 7.8 373.65 -10.15 371.65 -20.45 385.95 -22.6 388.9 -23.4 392.6 -24 395.45 -24.45 398.35 -14.65 401.1 -5.75 396.45 -0.75 393.9 4.4 391.6 11.4 380.2 21.75 372.1 23.95 370.4 26.8 370.15 29.05 369.95 31.25 370.5
L 31 372.8
Q 17.05 377.1 10.6 391 8.95 394.5 9.85 398.45 18.9 404.55 26.25 396.3 28.55 393.65 30.25 390.9 37.6 379.1 50.5 373.8 51.25 373.5 52.2 373.6 53.45 375.75 49.9 377.7 47.05 379.1 44.65 381.2 36.3 388.2 34.6 398.85 34.55 399.25 34.6 399.7 40.2 405.7 48.85 402.35 52.95 400.6 56.4 397.6 58.1 396.1 59.25 394.05 64.6 384.55 74.15 380.6
L 75.55 381.15
Q 70.2 387 64.45 394.6 62.25 397.5 61.8 401.15 71.45 404.4 78.75 396.85 81.35 394.15 83.3 391.1 85.15 388.25 88.1 386.9
L 84.2 396.15 87.35 399.95
Q 92.15 400.45 93.45 395.9 97.1 383.25 88.95 372.7 85.35 368.1 80 365.55 74.45 363 68.95 360.5
L 75.9 360.75 76.6 361.7 83.15 362.4
Q 96.5 329.25 109.2 295.85 112.9 286.2 114.75 275.9 119.05 251.9 129.05 229.8 138.4 209.15 149.4 189.2 169.2 153.25 167.9 112.3
M 324 364.85
Q 328.55 357 328 347.85 327.75 343.8 325.5 335.8 323.3 327.9 323.05 323.75 323.05 319.4 323 317.2 322.95 313.3 322.2 310.75 321.3 307.75 315.6 299.75 310.95 293.2 311.35 288.5 299.3 288.9 288.15 294.4 277 299.9 269.35 309.2 267.6 311.35 264.3 315.85 261.3 319.8 258.8 322.05 255.65 324.95 250.5 327.8 247.5 329.45 241.35 332.5 230.15 338.35 226.55 345 225.55 346.85 224.4 347.8 222.85 349.1 221.65 348.2 220.75 347.5 220.95 346.1 221.1 344.95 221.85 343.7 228.05 333.4 238.05 327.35 239.7 326.35 243.75 324.15 247.4 322.2 249.35 320.9 254.3 317.55 260.5 310.5 268.95 300.85 270.85 299.05 278.25 291.95 287.75 287.65 294.0041015625 284.786328125 300.55 283.4 300.438671875 282.8548828125 300.5 282.2 300.65 280.65 301.7 279.7 301.95 279.5 302.5 279.05 302.95 278.7 303.15 278.35 303.212109375 278.24140625 303.25 278.1 303.2970703125 276.49765625 304.05 274.3 307.8 263.45 309.4 255.15 311.5 244.6 310.85 235.5 310.1 225.15 305.6 216.4 300.75 207 292.7 201.9 285.85 197.55 276.85 196.55 268.7 195.65 259.85 197.5 252.5 199.05 243.8 202.8 238.75 204.95 228.4 210.15
L 206.4 221.3
Q 197.45 225.8 192.85 228.35 185.45 232.35 179.75 236.15 173.85 240.05 167.75 245.05 141.7 266.45 125.7 295.65 124.7 297.45 123.2 298.4 121.4 299.45 120.35 298.25 129.2 277.95 143.65 260.7 158.05 243.5 176.55 231.2 182.3 227.4 189.9 223.15 194.0794921875 220.76875 203.1 215.95 202.898828125 215.1798828125 202.75 214.25 200.65 202.6 197.15 191.9 193.85 182.7 192.2 178.05
L 182.25 149.85
Q 178.85 139.65 178.2 137.6
L 176.3 131.45
Q 175.658203125 129.2037109375 174.9 126.4 174.43359375 132.046484375 173.3 137.7 170.75 150.5 168.25 163.2
L 167.65 159.65
Q 153.85 195.5 134.9 229.1 132.35 233.6 130.75 238.55 129.15 243.45 127.95 248.55
L 129.35 247.6 127.85 254 126.7 254.65
Q 120.7 292.25 105 327.1 99.95 338.4 95.05 349.8 91.7 357.7 88.25 365.6 100.25 374.9 100.05 390.1
L 101.15 390.25 100.8 396 99.8 395.7
Q 99.4873046875 396.422265625 99.15 397.1 99.392578125 397.151953125 99.65 397.2 100.5 397.35 104.8 398.65 116.05 402.05 132.15 399.2 142 397.4 153.55 393.5 157.65 392.15 161.3 390.8 167.95 388.35 179.15 383.75
L 187.2 380.45
Q 188.435546875 379.9271484375 189.4 379.65 189.5890625 372.341796875 192.5 362.65 194.95 354.9 196.05 351.05 198.05 344.25 198.7 339.3 199.6 332.2 198.6 322.85 198.2 319.4 196.1 306.3 192.7 285.35 196.1 273.85 197.3 269.75 200 264.3 203.15 258.15 204.6 255.05 205.55 253.1 209.65 243.8 212.7 236.85 215.1 232.7 222.35 220.05 232.6 215.9
L 224.6 229
Q 217.3 241.15 214.05 246.9 208.4 256.95 204.75 265.4 201 274.05 199.95 280.55 199 286.45 199.8 294.8 199.85 295.1 203.75 320.05 206.1 335.15 204.5 345.15 203.8 349.7 201.15 358.45 198.5 367.2 197.8 371.7 196.6 379.1 198.35 385.5 200.25 392.75 205.45 396.55 213.6 402.45 227.5 398.9 229.95 398.3 238.45 395.4 245.2 393.15 249.5 392.5 253.7 391.9 260 392.05 263.55 392.1 270.65 392.35 283.4 392.5 290.25 388 292.25 386.7 297.35 381.85 301.65 377.8 304.85 376.4 306.55 375.7 310.1 374.85 313.65 374 315.3 373.25 320.45 370.9 324 364.85
M 113.7 322.15
Q 114.883203125 311.9298828125 118 302.3 117.777734375 303.3193359375 117.6 304.2 117.45 304.95 116.9 308.25 116.5 310.7 116.15 312.25 115.85 313.75 114.9 317.2 114.05 320.35 113.7 322.15
M -75.6 -305.15
Q -76.053515625 -305.603515625 -76.5 -306.05 -98.05625 -329.5271484375 -126.5 -342.75
L -145.6 -350.15
Q -151.1 -333.6 -152.8 -316.25 -154.8 -296.05 -151.2 -276.25 -149.65 -267.55 -147.1 -259.1 -146.9515625 -258.599609375 -146.8 -258.1 -145.0224609375 -252.1390625 -142.85 -248.8 -141.960546875 -247.4658203125 -141.45 -246.45 -137.1958984375 -249.8966796875 -132.9 -253.15 -133.323046875 -253.965625 -133.75 -255
L -135 -258.1
Q -135.266015625 -258.6 -135.55 -259.1 -144.35 -275.6 -146.8 -294.1 -149.1 -311.8 -144.75 -328.95 -143.35 -334.35 -141.25 -339.35
L -126.5 -337.05
Q -113.0130859375 -332.8283203125 -101.35 -322.45 -92.3 -314.5 -83.65 -306.05 -82.9271484375 -305.237109375 -82.2 -304.35 -74.7 -295.4 -71.5 -290.1 -70.8677734375 -289.0814453125 -70.6 -288.1 -67.225390625 -289.39921875 -63.8 -290.65 -64.1904296875 -291.233984375 -64.65 -292 -66.55 -295.3 -69.65 -298.9 -71.7 -301.25 -75.6 -305.15
M 38.45 -297.85
Q 24.05 -299.5 9.7 -299.05 -5 -298.55 -19.65 -296.25 -37.9 -293.3 -55.3 -287.45 -90.15 -275.8 -120.5 -255 -122.4 -253.7 -124.25 -252.3 -105.85 -257.6 -87.05 -260.55 -69.85 -263.35 -52.45 -265.3 -36.3 -267.15 -19.9 -268.1 -2.65 -268.95 14.7 -268.7 31.15 -268.45 47.55 -267.2 64.6 -265.55 81.6 -262.55 97.9 -259.5 113.9 -254.8 130.3 -250.2 146.2 -243.8 155.45 -240.1 164.3 -235.7 158.3458984375 -240.8484375 146.5 -251.85 134.71171875 -262.8021484375 116.3 -271.75 97.8884765625 -280.6546875 87.6 -285.35 77.302734375 -290.037109375 64.8 -293.2 52.300390625 -296.3052734375 38.45 -297.85
M 188.7 -326.55
Q 189.2 -326.75 189.7 -326.95 202.45 -301.95 187.85 -271 182.25 -259.1 175.25 -247.9 174.0291015625 -246.104296875 172.15 -243.55 170.8576171875 -241.72734375 169.65 -240.8 170.6392578125 -239.9107421875 171.35 -239.25 175.2234375 -235.4865234375 179.25 -230.7 185.76015625 -238.88046875 190.4 -247.9 212.3 -288.45 208.3 -332.95 208.25 -333.4 208.05 -333.75 156.8 -329.75 113.25 -299.5 105.378515625 -294.1205078125 98.05 -288 97.99453125 -287.953125 97.95 -287.9 102.0619140625 -286.1634765625 105.9 -284.45 106.17734375 -285.1056640625 106.75 -285.75 109.8466796875 -289.1875 113.25 -292.15 147.6 -316.9 188.7 -326.55 Z"/>

<path fill="#CC3333" stroke="none" d="
M -138.25 -334.7
Q -141.4 -325.85 -142.05 -315.45 -143.25 -296 -137.5 -277.65 -134.45 -268 -130.05 -259.1 -129.7591796875 -258.5998046875 -129.5 -258.1 -128.903125 -257.2263671875 -128.3 -256.55 -103.3318359375 -274.472265625 -75.1 -286.25 -75.509375 -286.8705078125 -76 -287.8 -79.55 -294.45 -84.1 -300.2 -85.85 -302.45 -87.75 -304.45 -88.3923828125 -305.0923828125 -89.45 -306.05 -105.5931640625 -322.4365234375 -126.5 -330.8
L -138.25 -334.7
M 191.25 -318.9
L 188.3 -321.4
Q 146.95 -312.5 113.25 -286.65 113.1166015625 -286.5001953125 112.95 -286.35 110.9 -284.45 109.85 -283.75 109.3318359375 -283.3859375 108.8 -283.1 134.9033203125 -271.1203125 148.35 -259.55 158.9439453125 -250.428515625 165.05 -245 165.547265625 -245.697265625 166.3 -246.45 168.451953125 -248.6892578125 170.35 -251.05 191 -280.65 191.15 -317.4 191.15 -318.15 191.25 -318.9 Z"/>
</g>
</defs>

<g transform="matrix( 1, 0, 0, 1, 500,500) ">
<g transform="matrix( 1, 0, 0, 1, 0,0) ">
<use xlink:href="#Layer5_0_FILL"/>
</g>
</g>
<defs>
<g id="Layer2_0_FILL">
<path fill="#000000" stroke="none" d="
M 424.75 263
Q 430.75 264.05 436.35 266.55 447.25 271.45 457.85 271 459.7 269.3 459.2 267.15 455.65 250.9 446.5 236.25 414.65 185 354.05 176.25 318 170.85 286.25 153.2 276.25 147.6 267.3 140.4 266.6 139.9 266 139.35 229.55 106.85 192.7 74.55 178.3 61.95 158.9 60.5 150.05 59.7 141.1 63.35 130.15 67.75 119.3 72.05 101.75 78.85 82.95 80.35 59.5 82.15 42.65 98.55 17.45 123.05 -14.2 138.55
L -68.3 112.95
Q -78.25 96.25 -97.3 90.25 -124.95 81.5 -152.05 71.2 -157.05 69.3 -162.35 70.85 -201.6 82.2 -230.4 112.2 -235.25 117.25 -240.45 121.9 -267.65 146.35 -292.85 173.15 -310.35 191.8 -328.95 209.25 -358.45 236.85 -396.9 250.15
L -402 252.75
Q -381.9 264.25 -357.8 267.5 -342.25 269.3 -327 265.8 -291.6 258 -257.65 244.35 -247.15 240.15 -236.45 242.5 -235.8 243.95 -236.8 246.5 -238 249.6 -240.25 252.2 -252.65 267 -257.45 285.85 -261.25 300.6 -259.25 316 -262.75 314.1 -266.25 312.2 -274.35 307.6 -279.8 300.2 -292 283.75 -312.85 285.6 -322.9 286.65 -329.7 294.25 -330.35 295 -331.05 295.7 -356.05 322.9 -349.05 359.45 -344.15 385.2 -321.6 397.95 -294.45 413.3 -265.6 403.35 -261.05 401.85 -256.85 403.95 -237.85 413.6 -218.3 406.25 -211.3 403.55 -208.15 396.85 -203.35 386.7 -202.25 375.1 -201.35 365.15 -195 357.25 -190.75 351.95 -187.2 351.25 -182.2 361.9 -173.85 370.4 -171.2 373.1 -167.85 371.9 -151.65 366.7 -134.25 369.55 -132.35 369.95 -130.55 369.4 -113.95 365.4 -96.55 366.55 -96.05 366.85 -95.45 366.55 -71.95 368.3 -50.1 375.85
L -53.85 392.95
Q -48.55 393.25 -43.15 392.55 -38.95 391.8 -34.7 392.15 -32.25 392.55 -29.7 393.05 -28 393.4 -26.55 394.2
L -24.15 392.95 -21.1 392.65 -20.55 389.35
Q -16.6 385.15 -12.7 380.95 -10.45 378.4 -7.35 377.9 -0.65 376.7 5.55 374.45 11.25 372.2 15.8 368 20.1 363.95 25.95 363.3
L 27.4 361.85
Q 30.5 361.4 33.65 361 59 356.8 82.2 366.8 83.55 367.4 84.55 368 100.6 378.2 98.45 396.6
L 97.1 400.05
Q 111.3 406.75 128.05 404.1 139.85 402.15 151.55 399.6 172 395.45 192.1 390.3 193.55 396.4 197.7 401.25 208.85 414.15 225.55 408.65 249.85 400.65 275.1 399.2 300.55 398.1 318.65 378.95 339.5 356.85 349.1 327.65 355.2 309.2 343.4 294.3 332.6 280.5 315.2 282.6 308.85 283.6 308.5 281.9
L 315.15 271.25
Q 322 268.6 329.1 267.1 341.2 264.7 353.25 262.65 389.3 256.3 424.75 263
M 427.8 220.55
Q 437.6 231.2 444.85 243.7 447.85 248.8 451.5 253.4 454.65 257.4 452.6 261.4
L 452.45 262.3
Q 426.95 254.4 400.2 254.9 385.25 255.2 370.25 255.55 342 256.15 315.75 265.35 320.6 251.5 321.55 237.05 322.45 223.95 316.4 212.35 307.95 196.25 289.75 192.1 283.8 190.95 277.65 191.25 250.5 192.85 226.8 207 217.95 212.35 210.1 212.4 192.5 166.75 178.2 120.05 177.35 117.2 177.2 114.3 176.1 96 165.3 81.95 177.15 85.25 188.45 90.1 201.15 95.4 212.1 103.8 239.2 124.85 265.4 146.6 278.4 157.3 293.8 163.9 324.65 177.1 357.75 183 398.95 190.45 427.8 220.55
M 344.7 316.85
Q 344.25 323.4 342.1 329.5 328.75 367.25 294.75 386.75 290.9 389 286.7 389.65 257.05 391.9 229.2 401.5 220.5 404.45 211.7 401.9 202.0564453125 398.975390625 199.75 390.2 200.794921875 387.437109375 202.85 384.65 205.25 381.35 210.45 376.45 213.7 373.55 214.6 372.9 216.9 371.2 220.6 369.45 222.7 368.45 226.9 366.5 239.5 360.45 248.65 349.75 251.85 346.15 253.4 342.8 254.35 340.65 255.25 337.1 256.5 332.05 256.7 331.3 258.4 325.95 262.3 319.75 264.67265625 315.8587890625 267.55 312 268.305859375 311.2482421875 269.05 310.45 283.3 295.15 303.9 289.35 315.85 285.95 327.45 290.15 346.05 297 344.7 316.85
M 209.15 94.4
Q 207.9 93.6 206.7 92.8 182.7 77.65 154.5 75.25
L 123.65 77.1
Q 136 70.25 149.65 66.5 158.65 64.15 167.6 67.4 191.05 76.25 209.15 94.4
M 176.1 131.5
L 194.65 192.6
Q 185.85 204 174.4 212.8 152.95 229.35 130.95 245.1 135.3 234.4 141.95 224.75 171 182.5 176.1 131.5
M 165.35 95.5
Q 172.65 113.9 170.5 134.15 165.35 182.75 136.4 222.7 131.55 229.4 128.8 237.2 119.15 264.4 110.7 292.15 102.75 318.2 92.6 343.4 87.95 354.95 81.7 360.8 75.9 358.8 69.85 357.85 46.35 354.5 25.05 357.75 17.3 323.05 29.75 289.9 31.65 284.8 34.7 280.35 53.9 251.7 55.35 217.7 56.35 194.65 58.8 171.65 61.85 142.55 81 120.75
L 80.7 120.45
Q 71.4 122.8 66.5 132.8 48.6 169.2 51.15 210.65 51.6 217.65 50.3 224.35 44.4 255.15 27.1 282 25.3 282.65 23.55 283.35 1.95 292.15 -21.15 286.95 -35.65 283.85 -48.75 277.8 -52.35 267.6 -56.2 256.6 -60.85 243.3 -68.75 231.6 -80.1 214.8 -83.85 194.9 -87.95 173.4 -94.1 152.25 -97.7 140 -105.2 131.65 -105.6 131.95 -105.5 132.15 -99.6 148.4 -95.25 165.3 -93.65 171.5 -93.4 177.85 -92.35 202.35 -79.3 222.35 -61.8 249.2 -55.6 280.7 -49.1 313.6 -49.1 347.2 -49.1 360.25 -51.35 369.75
L -96.3 361.1
Q -124.6 328.8 -131.75 286.55 -135.6 263.75 -145.85 242.95 -162.45 209.25 -176.55 174.5 -191.85 136.65 -167.2 103.5 -166.65 103.45 -166.05 103.4 -130.35 99.55 -97.9 113.7 -96.6 114.2 -95.35 114.9 -81.75 122.6 -67.8 117.6
L -14.65 144.55 28.35 118.35
Q 30.45 119.3 32.7 119.3 47.6 119.3 60.5 110.6 97.05 86 140.35 80.15 144.35 79.65 147.3 80.4
L 146.2 81.3
Q 160.1 82.3 165.35 95.5
M 60.85 91.7
Q 65.5 89.2 70.55 88.2 85 85.35 99.95 83.85
L 46.15 111.4 34.1 114.6
Q 44.9 100.1 60.85 91.7
M 129.85 278.1
Q 125.9 285.15 123.05 292.7 111.3 323.65 115.25 356.75 118.5 384.05 142.4 395.15 122.85 401.25 103.5 396.95 103.6 393.05 103.4 389.45 102.5 373.2 88.2 364.4 110.5 319.2 122.75 270.3 125.8 258.1 131.15 248.2 135.9 246.4 140.25 243.75 171.65 224.2 197.15 198.2
L 203.4 215.05
Q 201.15 217.4 196.45 219.3 153.15 236.85 129.85 278.1
M 16.8 325.7
L 17.2 360
Q 9.4 367.6 -0.5 370.85 -4.2 372.05 -7.55 373.55 -17.7 378.05 -24.75 386.3 -36.5 377.75 -41.2 362.2 -42.6 357.5 -42.7 352.9 -43.45 317.6 -48.5 282.3 -45.3 283.65 -42 284.8 -31.1 288.6 -19.55 290.95 1.75 295.5 22.9 290.5
L 16.8 325.7
M 142.5 387.65
Q 134.65 384.7 130.6 377.45 115.85 351.25 120.75 320.65 125.65 289.9 145.35 265.2 154.25 253.95 165.3 244.75 190.4 224 222.45 215.55 231.55 211.65 240.25 206.55 271 188.45 301.95 204.3 305.4 206.05 307.65 209.25 320.7 228.15 314.35 251.75 312.9 257.2 310.25 262.05 309.255859375 263.85703125 308.3 265.65 308.2515625 265.2828125 308.15 264.9 303.4 246.2 285.15 238.45 266.5 230.6 246.75 234.7 226.95 238.9 211.2 251.6
L 210.85 251.9
Q 210.2681640625 252.37890625 209.7 252.8 211.6001953125 246.894921875 213.95 241.05 215.7 236.6 219.2 233.3 227.85 225.2 232.6 214.9 225.3 219.85 219.8 226.7 205.1 245.1 199.45 268 193.35 292.55 199.35 316.7 201.75 326.4 199.15 336.05 192.55 360.65 191.3 385.8 184.8 387.6 178.45 389.3 160.05 394.4 142.5 387.65
M 303 277.55
Q 301.6404296875 281.2095703125 300.55 284.85 290.891796875 288.1654296875 282 293.85 278.6904296875 295.400390625 275.05 298.75 272.1900390625 301.0005859375 269.4 303.5 262.95 309.35 255.7 314.05 242.15 322.8 229.55 332.7 219.25 340.8 222.4 351.2 223.05 351 223.25 350.55 225.85 345.9 228.5 341.4 231.8 335.7 237.95 332.85 248.8140625 327.8103515625 257.9 320.7 255.11171875 325.6353515625 253.9 329.45 253.65 330.25 252.35 335.65 251.45 339.4 250.35 341.65 249.2 343.95 246.6 347.1 238.9 356.25 229.05 361.45 227.5 362.3 222.6 364.55 218.55 366.45 216.25 367.85 213.55 369.5 207.9 374.1 204.45 377 202.85 378.55 200.583203125 380.6908203125 198.95 382.75 198.6234375 362.7439453125 204.05 343.35 206.9 333 204.85 322.45 201.95 307.5 202.7 292.25 203.4642578125 276.7009765625 207.2 261.7 208.757421875 259.486328125 210.95 257.35 211.0732421875 257.2287109375 211.2 257.1 217.45 251.95 224.55 247.4 236.75 239.6 251.3 237.35 270.95 234 288.25 243.6 303.8 252.2 305.1 269.6 305.32265625 271.2818359375 305.1 272.3 305.05 272.525 304.95 272.75 304.6275390625 273.5640625 304.3 274.35 304.249609375 274.454296875 304.2 274.55 303.4 276.15 303.2 276.8 303.08203125 277.18359375 303 277.55
M -139.35 83.95
Q -148.3 84.15 -157.2 84.25 -159.75 84.25 -162.15 85 -167.3 86.5 -169.8 88.85 -155.35 86.9 -140.45 87.2 -116.1 88.8 -93.05 98.55 -81.7 103.3 -76.6 114.4 -82.6 113.5 -88.15 111.5 -108.7 104.1 -130.2 100.6 -171.4 94.25 -210.2 108.85
L -213.5 110.25
Q -212.65 109.7 -212.7 109.65 -212.75 109.5 -213.7 109.85
L -224.4 113.3
Q -198.8 88.4 -164.65 79.25 -151.35 75.75 -139.35 83.95
M -189.25 106.55
L -171.2 103.8
Q -188 121.2 -187.25 146.35 -187.05 154.05 -185.15 161.45 -179.65 182.95 -170.1 203.15 -165.3 213.3 -163.3 220.55 -172.45 213.65 -183.6 211.85 -201.6 209.1 -216.45 219.35 -226.35 226.2 -233.95 235.6 -238.35 234.1 -242.9 235.75 -274.7 247 -306.65 258.25 -335.4 268.35 -364.9 261 -378.7 257.65 -391.75 252.1 -384.95 249.25 -378.25 246.45 -341.15 230.85 -314.3 201.2 -287.5 171.65 -258.2 144.75 -228.25 117.2 -189.25 106.55
M -234.45 256.75
Q -235.2400390625 256.915625 -235.85 257.1 -236.718359375 257.35 -237.65 257.75 -237.18828125 256.8583984375 -236.85 255.9 -232.1 242.2 -222.6 231.85 -210.2 218.3 -192.15 218.15 -175.75 218 -161.45 226.35
L -155.05 233
Q -142.75 259.1 -138.2 287.35 -132.75 321 -112.75 348.6 -106.45 357.3 -103.45 363.45 -114 363.4 -124.65 363.9 -128.2 364.25 -131.45 364.15 -149.85 363.05 -166.6 367.95
L -185.75 347.5
Q -181.25 341.7 -177.6 335.3 -160.65 305.85 -164 273.15 -166.85 273.55 -167.1 277 -168.203125 294.0134765625 -173.45 310.05 -173.4388671875 308.6603515625 -173.55 307.3 -173.6572265625 306.04921875 -174 303.75 -175 299.15 -176.3 294.6 -181.65 275.45 -198.35 264.7 -214.95 253.95 -234.45 256.75
M -242.9 265.45
Q -240.9 263.3 -238.35 261.95 -237.1951171875 261.3560546875 -236.05 260.95 -231.6 260 -226.95 260 -206.3 260.05 -191.8 274.7 -177.15 289.55 -177.6 310.4 -177.5873046875 311.1544921875 -177.6 311.85 -177.75 321.4 -181.85 330.2 -182.0931640625 330.6701171875 -182.25 331.05 -189.1265625 344.42109375 -198.65 356.2 -208.5595703125 368.5091796875 -210.6 384.1 -211.2763671875 381.335546875 -212.4 378.7 -214.55 373.55 -217.8 370.75 -221.85 367.25 -227.15 367.25 -228.35 367.25 -232.25 367.7 -235.4 368.1 -237.3 367.75 -238.8 367.45 -242.7 365.75 -246.05 364.25 -248.2 364.3 -248.75 362.75 -250.05 361 -251.6 359 -252.4 358 -256 353.2 -259.2 344.5 -263.8 331.95 -264.65 330.15 -268.35 322.2 -275.45 313.75 -277.221875 311.6484375 -279.85 308.8 -274.75703125 313.1796875 -268.75 316.35 -252.35 324.85 -237.5 335.65 -234.05 338.2 -232.15 341.9 -227.85 350.4 -220.15 350.6 -224.7 341.65 -232.15 334.45 -242.65 324.4 -254.1 317.5 -259.986328125 288.573828125 -243.45 266 -243.1947265625 265.76328125 -242.9 265.45
M -317.25 291.25
Q -316.719921875 291.108203125 -316.2 290.95 -316.2568359375 291.109765625 -316.3 291.25 -316.55 291.95 -316.2 292.45 -315.7 293.15 -314.05 293.05 -309.35 292.7 -306.45 292.85 -302.3 293.15 -299.25 294.6 -297.05 295.65 -294.8 297.55 -293.4 298.75 -290.95 301.25 -281.9 310.5 -277.35 316.1 -270.4 324.8 -266.8 333 -265.1 336.95 -262.35 345.15 -259.65 352.4 -256.55 356.5 -254.95 358.65 -251.3 362.65 -249.4 364.9 -248.6 365.5 -247.5 366.45 -245.4 367.25 -240.55 369.3 -233.95 370.15 -230.05 370.65 -222.05 371 -216.85 374.7 -214.45 380.95 -212.05 387.25 -213.55 393.45 -213.679296875 394.0390625 -213.75 394.5
L -213.75 394.55
Q -227.15 408.6 -245.9 401.1 -251.55 398.8 -257.3 397.65 -264.1 396.15 -271 398.2 -288.45 403.5 -306.3 398.5 -338.5 389.5 -344.15 356.7 -350.75 318.6 -321.65 293.55 -319.65 291.9 -317.25 291.25
M -292.95 295.7
Q -293.065234375 295.600390625 -293.2 295.5 -290.448046875 297.5939453125 -287.95 300.5 -288.5166015625 299.9302734375 -289.1 299.35 -291.5 296.95 -292.95 295.7
M -43.9 368.9
L -43.95 366.05 -32.3 386.75 -47.45 386.1 -46 375.45 -43.9 368.9 Z"/>

<path fill="#3399CC" stroke="none" d="
M -43.95 366.05
L -43.9 368.9 -46 375.45 -47.45 386.1 -32.3 386.75 -43.95 366.05
M -235.85 257.1
Q -235.2400390625 256.915625 -234.45 256.75 -214.95 253.95 -198.35 264.7 -181.65 275.45 -176.3 294.6 -175 299.15 -174 303.75 -173.6572265625 306.04921875 -173.55 307.3 -173.4388671875 308.6603515625 -173.45 310.05 -168.203125 294.0134765625 -167.1 277 -166.85 273.55 -164 273.15 -160.65 305.85 -177.6 335.3 -181.25 341.7 -185.75 347.5
L -166.6 367.95
Q -149.85 363.05 -131.45 364.15 -128.2 364.25 -124.65 363.9 -114 363.4 -103.45 363.45 -106.45 357.3 -112.75 348.6 -132.75 321 -138.2 287.35 -142.75 259.1 -155.05 233
L -161.45 226.35
Q -175.75 218 -192.15 218.15 -210.2 218.3 -222.6 231.85 -232.1 242.2 -236.85 255.9 -237.18828125 256.8583984375 -237.65 257.75 -236.718359375 257.35 -235.85 257.1
M 130.6 377.45
Q 134.65 384.7 142.5 387.65 160.05 394.4 178.45 389.3 184.8 387.6 191.3 385.8 192.55 360.65 199.15 336.05 201.75 326.4 199.35 316.7 193.35 292.55 199.45 268 205.1 245.1 219.8 226.7 225.3 219.85 232.6 214.9 227.85 225.2 219.2 233.3 215.7 236.6 213.95 241.05 211.6001953125 246.894921875 209.7 252.8 210.2681640625 252.37890625 210.85 251.9
L 211.2 251.6
Q 226.95 238.9 246.75 234.7 266.5 230.6 285.15 238.45 303.4 246.2 308.15 264.9 308.2515625 265.2828125 308.3 265.65 309.255859375 263.85703125 310.25 262.05 312.9 257.2 314.35 251.75 320.7 228.15 307.65 209.25 305.4 206.05 301.95 204.3 271 188.45 240.25 206.55 231.55 211.65 222.45 215.55 190.4 224 165.3 244.75 154.25 253.95 145.35 265.2 125.65 289.9 120.75 320.65 115.85 351.25 130.6 377.45
M 170.5 134.15
Q 172.65 113.9 165.35 95.5 160.1 82.3 146.2 81.3
L 147.3 80.4
Q 144.35 79.65 140.35 80.15 97.05 86 60.5 110.6 47.6 119.3 32.7 119.3 30.45 119.3 28.35 118.35
L -14.65 144.55 -67.8 117.6
Q -81.75 122.6 -95.35 114.9 -96.6 114.2 -97.9 113.7 -130.35 99.55 -166.05 103.4 -166.65 103.45 -167.2 103.5 -191.85 136.65 -176.55 174.5 -162.45 209.25 -145.85 242.95 -135.6 263.75 -131.75 286.55 -124.6 328.8 -96.3 361.1
L -51.35 369.75
Q -49.1 360.25 -49.1 347.2 -49.1 313.6 -55.6 280.7 -61.8 249.2 -79.3 222.35 -92.35 202.35 -93.4 177.85 -93.65 171.5 -95.25 165.3 -99.6 148.4 -105.5 132.15 -105.6 131.95 -105.2 131.65 -97.7 140 -94.1 152.25 -87.95 173.4 -83.85 194.9 -80.1 214.8 -68.75 231.6 -60.85 243.3 -56.2 256.6 -52.35 267.6 -48.75 277.8 -35.65 283.85 -21.15 286.95 1.95 292.15 23.55 283.35 25.3 282.65 27.1 282 44.4 255.15 50.3 224.35 51.6 217.65 51.15 210.65 48.6 169.2 66.5 132.8 71.4 122.8 80.7 120.45
L 81 120.75
Q 61.85 142.55 58.8 171.65 56.35 194.65 55.35 217.7 53.9 251.7 34.7 280.35 31.65 284.8 29.75 289.9 17.3 323.05 25.05 357.75 46.35 354.5 69.85 357.85 75.9 358.8 81.7 360.8 87.95 354.95 92.6 343.4 102.75 318.2 110.7 292.15 119.15 264.4 128.8 237.2 131.55 229.4 136.4 222.7 165.35 182.75 170.5 134.15
M 194.65 192.6
L 176.1 131.5
Q 171 182.5 141.95 224.75 135.3 234.4 130.95 245.1 152.95 229.35 174.4 212.8 185.85 204 194.65 192.6 Z"/>

<path fill="#4D7091" stroke="none" d="
M -293.2 295.5
Q -293.065234375 295.600390625 -292.95 295.7 -291.5 296.95 -289.1 299.35 -288.5166015625 299.9302734375 -287.95 300.5 -290.448046875 297.5939453125 -293.2 295.5 Z"/>

<path fill="#990033" stroke="none" d="
M -316.2 290.95
Q -316.719921875 291.108203125 -317.25 291.25 -319.65 291.9 -321.65 293.55 -350.75 318.6 -344.15 356.7 -338.5 389.5 -306.3 398.5 -288.45 403.5 -271 398.2 -264.1 396.15 -257.3 397.65 -251.55 398.8 -245.9 401.1 -227.15 408.6 -213.75 394.55
L -213.75 394.5
Q -213.679296875 394.0390625 -213.55 393.45 -212.05 387.25 -214.45 380.95 -216.85 374.7 -222.05 371 -230.05 370.65 -233.95 370.15 -240.55 369.3 -245.4 367.25 -247.5 366.45 -248.6 365.5 -249.4 364.9 -251.3 362.65 -254.95 358.65 -256.55 356.5 -259.65 352.4 -262.35 345.15 -265.1 336.95 -266.8 333 -270.4 324.8 -277.35 316.1 -281.9 310.5 -290.95 301.25 -293.4 298.75 -294.8 297.55 -297.05 295.65 -299.25 294.6 -302.3 293.15 -306.45 292.85 -309.35 292.7 -314.05 293.05 -315.7 293.15 -316.2 292.45 -316.55 291.95 -316.3 291.25 -316.2568359375 291.109765625 -316.2 290.95
M -171.2 103.8
L -189.25 106.55
Q -228.25 117.2 -258.2 144.75 -287.5 171.65 -314.3 201.2 -341.15 230.85 -378.25 246.45 -384.95 249.25 -391.75 252.1 -378.7 257.65 -364.9 261 -335.4 268.35 -306.65 258.25 -274.7 247 -242.9 235.75 -238.35 234.1 -233.95 235.6 -226.35 226.2 -216.45 219.35 -201.6 209.1 -183.6 211.85 -172.45 213.65 -163.3 220.55 -165.3 213.3 -170.1 203.15 -179.65 182.95 -185.15 161.45 -187.05 154.05 -187.25 146.35 -188 121.2 -171.2 103.8
M 342.1 329.5
Q 344.25 323.4 344.7 316.85 346.05 297 327.45 290.15 315.85 285.95 303.9 289.35 283.3 295.15 269.05 310.45 268.305859375 311.2482421875 267.55 312 264.67265625 315.8587890625 262.3 319.75 258.4 325.95 256.7 331.3 256.5 332.05 255.25 337.1 254.35 340.65 253.4 342.8 251.85 346.15 248.65 349.75 239.5 360.45 226.9 366.5 222.7 368.45 220.6 369.45 216.9 371.2 214.6 372.9 213.7 373.55 210.45 376.45 205.25 381.35 202.85 384.65 200.794921875 387.437109375 199.75 390.2 202.0564453125 398.975390625 211.7 401.9 220.5 404.45 229.2 401.5 257.05 391.9 286.7 389.65 290.9 389 294.75 386.75 328.75 367.25 342.1 329.5
M 444.85 243.7
Q 437.6 231.2 427.8 220.55 398.95 190.45 357.75 183 324.65 177.1 293.8 163.9 278.4 157.3 265.4 146.6 239.2 124.85 212.1 103.8 201.15 95.4 188.45 90.1 177.15 85.25 165.3 81.95 176.1 96 177.2 114.3 177.35 117.2 178.2 120.05 192.5 166.75 210.1 212.4 217.95 212.35 226.8 207 250.5 192.85 277.65 191.25 283.8 190.95 289.75 192.1 307.95 196.25 316.4 212.35 322.45 223.95 321.55 237.05 320.6 251.5 315.75 265.35 342 256.15 370.25 255.55 385.25 255.2 400.2 254.9 426.95 254.4 452.45 262.3
L 452.6 261.4
Q 454.65 257.4 451.5 253.4 447.85 248.8 444.85 243.7 Z"/>

<path fill="#CC3333" stroke="none" d="
M -238.35 261.95
Q -240.9 263.3 -242.9 265.45 -243.1947265625 265.76328125 -243.45 266 -259.986328125 288.573828125 -254.1 317.5 -242.65 324.4 -232.15 334.45 -224.7 341.65 -220.15 350.6 -227.85 350.4 -232.15 341.9 -234.05 338.2 -237.5 335.65 -252.35 324.85 -268.75 316.35 -274.75703125 313.1796875 -279.85 308.8 -277.221875 311.6484375 -275.45 313.75 -268.35 322.2 -264.65 330.15 -263.8 331.95 -259.2 344.5 -256 353.2 -252.4 358 -251.6 359 -250.05 361 -248.75 362.75 -248.2 364.3 -246.05 364.25 -242.7 365.75 -238.8 367.45 -237.3 367.75 -235.4 368.1 -232.25 367.7 -228.35 367.25 -227.15 367.25 -221.85 367.25 -217.8 370.75 -214.55 373.55 -212.4 378.7 -211.2763671875 381.335546875 -210.6 384.1 -208.5595703125 368.5091796875 -198.65 356.2 -189.1265625 344.42109375 -182.25 331.05 -182.0931640625 330.6701171875 -181.85 330.2 -177.75 321.4 -177.6 311.85 -177.5873046875 311.1544921875 -177.6 310.4 -177.15 289.55 -191.8 274.7 -206.3 260.05 -226.95 260 -231.6 260 -236.05 260.95 -237.1951171875 261.3560546875 -238.35 261.95
M -157.2 84.25
Q -148.3 84.15 -139.35 83.95 -151.35 75.75 -164.65 79.25 -198.8 88.4 -224.4 113.3
L -213.7 109.85
Q -212.75 109.5 -212.7 109.65 -212.65 109.7 -213.5 110.25
L -210.2 108.85
Q -171.4 94.25 -130.2 100.6 -108.7 104.1 -88.15 111.5 -82.6 113.5 -76.6 114.4 -81.7 103.3 -93.05 98.55 -116.1 88.8 -140.45 87.2 -155.35 86.9 -169.8 88.85 -167.3 86.5 -162.15 85 -159.75 84.25 -157.2 84.25
M 300.55 284.85
Q 301.6404296875 281.2095703125 303 277.55 303.08203125 277.18359375 303.2 276.8 303.4 276.15 304.2 274.55 304.249609375 274.454296875 304.3 274.35 304.6275390625 273.5640625 304.95 272.75 305.05 272.525 305.1 272.3 305.32265625 271.2818359375 305.1 269.6 303.8 252.2 288.25 243.6 270.95 234 251.3 237.35 236.75 239.6 224.55 247.4 217.45 251.95 211.2 257.1 211.0732421875 257.2287109375 210.95 257.35 208.757421875 259.486328125 207.2 261.7 203.4642578125 276.7009765625 202.7 292.25 201.95 307.5 204.85 322.45 206.9 333 204.05 343.35 198.6234375 362.7439453125 198.95 382.75 200.583203125 380.6908203125 202.85 378.55 204.45 377 207.9 374.1 213.55 369.5 216.25 367.85 218.55 366.45 222.6 364.55 227.5 362.3 229.05 361.45 238.9 356.25 246.6 347.1 249.2 343.95 250.35 341.65 251.45 339.4 252.35 335.65 253.65 330.25 253.9 329.45 255.11171875 325.6353515625 257.9 320.7 248.8140625 327.8103515625 237.95 332.85 231.8 335.7 228.5 341.4 225.85 345.9 223.25 350.55 223.05 351 222.4 351.2 219.25 340.8 229.55 332.7 242.15 322.8 255.7 314.05 262.95 309.35 269.4 303.5 272.1900390625 301.0005859375 275.05 298.75 278.6904296875 295.400390625 282 293.85 290.891796875 288.1654296875 300.55 284.85
M 17.2 360
L 16.8 325.7 22.9 290.5
Q 1.75 295.5 -19.55 290.95 -31.1 288.6 -42 284.8 -45.3 283.65 -48.5 282.3 -43.45 317.6 -42.7 352.9 -42.6 357.5 -41.2 362.2 -36.5 377.75 -24.75 386.3 -17.7 378.05 -7.55 373.55 -4.2 372.05 -0.5 370.85 9.4 367.6 17.2 360
M 123.05 292.7
Q 125.9 285.15 129.85 278.1 153.15 236.85 196.45 219.3 201.15 217.4 203.4 215.05
L 197.15 198.2
Q 171.65 224.2 140.25 243.75 135.9 246.4 131.15 248.2 125.8 258.1 122.75 270.3 110.5 319.2 88.2 364.4 102.5 373.2 103.4 389.45 103.6 393.05 103.5 396.95 122.85 401.25 142.4 395.15 118.5 384.05 115.25 356.75 111.3 323.65 123.05 292.7
M 70.55 88.2
Q 65.5 89.2 60.85 91.7 44.9 100.1 34.1 114.6
L 46.15 111.4 99.95 83.85
Q 85 85.35 70.55 88.2
M 206.7 92.8
Q 207.9 93.6 209.15 94.4 191.05 76.25 167.6 67.4 158.65 64.15 149.65 66.5 136 70.25 123.65 77.1
L 154.5 75.25
Q 182.7 77.65 206.7 92.8 Z"/>
</g>
</defs>

<g transform="matrix( 1, 0, 0, 1, 500,500) ">
<g transform="matrix( 1, 0, 0, 1, 0,0) ">
<use xlink:href="#Layer2_0_FILL"/>
</g>
</g>
</svg>
